<?xml version="1.0" encoding="iso-8859-1"?>
<!-- Generator: Adobe Illustrator 19.0.0, SVG Export Plug-In . SVG Version: 6.00 Build 0)  -->
<svg version="1.1" id="Layer_1" xmlns="http://www.w3.org/2000/svg" xmlns:xlink="http://www.w3.org/1999/xlink" x="0px" y="0px"
	 viewBox="0 0 512 512" style="enable-background:new 0 0 512 512;" xml:space="preserve">
<circle style="fill:#D5D5D5;" cx="256" cy="256" r="197.792"/>
<g>
	<rect x="227.104" y="20.288" style="fill:#222077;" width="32" height="471.136"/>
	<rect x="241.76" y="201.904" style="fill:#222077;" width="239.488" height="32"/>
	<rect x="33.712" y="307.904" style="fill:#222077;" width="205.472" height="32"/>
	<rect x="89.696" y="77.872" style="fill:#222077;" width="32" height="246.032"/>
	<path style="fill:#222077;" d="M350.432,266.464c-32.464,0-53.408,21.728-53.408,55.344c0,28.016,42.08,84.272,46.88,90.56
		l6.528,8.64l6.576-8.64c4.768-6.336,46.832-62.576,46.832-90.56C403.84,288.192,382.88,266.464,350.432,266.464z M350.384,339.504
		c-9.552,0-17.296-7.76-17.296-17.328s7.744-17.328,17.296-17.328s17.296,7.76,17.296,17.328S359.936,339.504,350.384,339.504z"/>
	<path style="fill:#222077;" d="M256,32c123.52,0,224,100.48,224,224S379.52,480,256,480S32,379.52,32,256S132.48,32,256,32 M256,0
		C114.608,0,0,114.608,0,256s114.608,256,256,256s256-114.608,256-256S397.392,0,256,0L256,0z"/>
</g>
<g>
</g>
<g>
</g>
<g>
</g>
<g>
</g>
<g>
</g>
<g>
</g>
<g>
</g>
<g>
</g>
<g>
</g>
<g>
</g>
<g>
</g>
<g>
</g>
<g>
</g>
<g>
</g>
<g>
</g>
</svg>
