<?xml version="1.0" encoding="iso-8859-1"?>
<!-- Generator: Adobe Illustrator 19.0.0, SVG Export Plug-In . SVG Version: 6.00 Build 0)  -->
<svg version="1.1" id="Layer_1" xmlns="http://www.w3.org/2000/svg" xmlns:xlink="http://www.w3.org/1999/xlink" x="0px" y="0px"
	 viewBox="0 0 512 512" style="enable-background:new 0 0 512 512;" xml:space="preserve">
<path style="fill:#38C6B4;" d="M160.96,0c-50.128,0-90.768,40.848-90.768,91.232c0,36.72,21.632,68.288,52.752,82.768
	c9.84,34.032,29.776,73.92,32.704,79.68l5.328,10.544l5.36-10.544c2.896-5.792,22.816-45.664,32.656-79.664
	c31.12-14.464,52.752-46.048,52.752-82.768C251.728,40.848,211.088,0,160.96,0z M160.96,121.552c-16.656,0-30.16-13.568-30.16-30.32
	s13.504-30.32,30.16-30.32s30.16,13.568,30.16,30.32S177.616,121.552,160.96,121.552z"/>
<polygon style="fill:#222077;" points="297.632,512 265.632,512 265.632,445.568 144.672,445.568 144.672,301.808 409.808,301.808 
	409.808,219.328 249.392,219.328 249.392,187.328 441.808,187.328 441.808,333.808 176.672,333.808 176.672,413.568 
	297.632,413.568 "/>
<g>
</g>
<g>
</g>
<g>
</g>
<g>
</g>
<g>
</g>
<g>
</g>
<g>
</g>
<g>
</g>
<g>
</g>
<g>
</g>
<g>
</g>
<g>
</g>
<g>
</g>
<g>
</g>
<g>
</g>
</svg>
